<svg width="28" height="28" viewBox="0 0 28 28" fill="none" xmlns="http://www.w3.org/2000/svg">
<path d="M3.30437 21.283C3.30437 21.2865 3.30438 21.293 3.30035 21.3021C3.30186 21.296 3.30287 21.2895 3.30437 21.283Z" fill="#756767"/>
<path d="M24.0563 22.181C23.8762 22.1771 23.6984 22.1401 23.5318 22.0716L20.4266 20.9708L20.4037 20.9615C20.336 20.9333 20.2632 20.9191 20.1898 20.9199C20.1222 20.92 20.0552 20.9322 19.9919 20.956C19.9164 20.9845 19.2366 21.2398 18.5235 21.4356C18.1369 21.5417 16.791 21.8879 15.7109 21.8879C12.9503 21.8879 10.3691 20.827 8.44352 18.9003C7.50284 17.9654 6.75694 16.8532 6.24901 15.6281C5.74107 14.403 5.48118 13.0893 5.48437 11.763C5.48435 11.072 5.55879 10.383 5.7064 9.70789C6.18711 7.48648 7.46023 5.46578 9.29117 4.02039C11.1693 2.54712 13.488 1.74748 15.875 1.74976C18.7302 1.74976 21.3908 2.84351 23.3672 4.82211C25.2353 6.69625 26.2591 9.16047 26.2509 11.7603C26.2492 13.6922 25.6724 15.5798 24.5938 17.1826L24.5834 17.1979L24.543 17.2526C24.5337 17.2652 24.5244 17.2772 24.5156 17.2898L24.5074 17.3045C24.4857 17.3415 24.466 17.3797 24.4484 17.4188L25.3091 20.4781C25.3472 20.6043 25.3678 20.7351 25.3704 20.8669C25.3706 21.0395 25.3368 21.2105 25.2708 21.37C25.2048 21.5296 25.108 21.6745 24.986 21.7966C24.8639 21.9187 24.7189 22.0155 24.5594 22.0814C24.3999 22.1474 24.2289 22.1812 24.0563 22.181Z" fill="#F9F5EB"/>
<path d="M16.3985 23.2641C16.342 23.1542 16.2625 23.0577 16.1654 22.9813C16.0683 22.9049 15.9559 22.8502 15.8358 22.8211C15.5197 22.7375 15.1511 22.7517 14.8694 22.7309C12.2102 22.546 9.70772 21.4047 7.82459 19.518C6.15047 17.8532 5.06245 15.6897 4.72436 13.3531C4.64779 12.8204 4.64779 12.6881 4.64779 12.6881C4.64776 12.5104 4.59361 12.3369 4.49256 12.1907C4.3915 12.0445 4.24832 11.9325 4.08208 11.8697C3.91583 11.8069 3.7344 11.7962 3.56192 11.839C3.38944 11.8819 3.23409 11.9762 3.11654 12.1095C3.11654 12.1095 2.68561 12.5787 2.48217 13.0496C1.9116 14.3642 1.66828 15.7975 1.77305 17.2268C1.87782 18.6561 2.32756 20.0386 3.08373 21.256C3.22592 21.4928 3.22592 21.6021 3.1942 21.8482C3.0449 22.6199 2.7835 23.981 2.64732 24.6871C2.60224 24.916 2.61901 25.1529 2.69591 25.3732C2.77281 25.5935 2.90706 25.7893 3.08482 25.9405L3.10998 25.9618C3.34514 26.1486 3.63655 26.2504 3.93686 26.2506C4.10577 26.2507 4.27304 26.2175 4.42904 26.1527L7.35537 25.0234C7.45613 24.9851 7.56743 24.9851 7.66819 25.0234C8.82045 25.4521 10.0197 25.6796 11.1562 25.6796C12.5721 25.681 13.9709 25.3699 15.2528 24.7685C15.5514 24.6285 16.0184 24.4765 16.2919 24.1604C16.3953 24.0378 16.4606 23.8876 16.4796 23.7282C16.4985 23.5689 16.4703 23.4076 16.3985 23.2641Z" fill="#F9F5EB"/>
</svg>
