<svg width="23" height="23" viewBox="0 0 21 21" fill="none" xmlns="http://www.w3.org/2000/svg">
<path d="M18.5719 20.4313C18.3919 20.4274 18.2141 20.3903 18.0475 20.3219L14.9423 19.221L14.9193 19.2117C14.8516 19.1835 14.7789 19.1694 14.7055 19.1702C14.6379 19.1702 14.5708 19.1825 14.5075 19.2063C14.4321 19.2347 13.7523 19.4901 13.0392 19.6859C12.6525 19.792 11.3067 20.1381 10.2266 20.1381C7.46597 20.1381 4.88472 19.0772 2.95917 17.1506C2.0185 16.2157 1.2726 15.1035 0.764661 13.8783C0.256723 12.6532 -0.003169 11.3395 2.91614e-05 10.0133C6.5809e-06 9.32225 0.0744466 8.63322 0.22206 7.95813C0.702764 5.73673 1.97589 3.71602 3.80683 2.27063C5.68499 0.797368 8.00361 -0.00227555 10.3907 4.86395e-06C13.2459 4.86395e-06 15.9064 1.09376 17.8828 3.07235C19.751 4.94649 20.7747 7.41071 20.7665 10.0106C20.7649 11.9424 20.188 13.8301 19.1095 15.4328L19.0991 15.4481L19.0586 15.5028C19.0493 15.5154 19.04 15.5274 19.0313 15.54L19.0231 15.5548C19.0013 15.5918 18.9816 15.6299 18.964 15.6691L19.8248 18.7283C19.8629 18.8545 19.8835 18.9853 19.886 19.1171C19.8863 19.2898 19.8524 19.4607 19.7865 19.6203C19.7205 19.7798 19.6237 19.9248 19.5016 20.0468C19.3796 20.1689 19.2346 20.2657 19.0751 20.3317C18.9155 20.3976 18.7445 20.4315 18.5719 20.4313V20.4313Z" fill="#0E1428"/>
<path d="M6 7.5H15M6 10H15M6 12.5H15" stroke="#F9F5EB" stroke-linecap="round"/>
</svg>
