<svg width="31" height="32" viewBox="0 0 31 32" fill="none" xmlns="http://www.w3.org/2000/svg">
<g clip-path="url(#clip0_542_1877)">
<path d="M22.3068 0C21.6117 0 20.9508 0.134629 20.3228 0.360861C17.1253 1.51284 13.5137 1.56003 10.3245 0.390007C9.66086 0.14712 8.96432 0 8.24036 0C1.58213 0 -0.628142 5.30881 0.14792 12.5302C1.1228 21.5961 7.84822 30.5094 14.5106 31.9028C14.9767 32.0319 15.5704 32.0319 16.0353 31.9028C22.6976 30.5094 29.8933 21.5642 30.8682 12.4983C31.6456 5.27828 28.9637 0 22.3068 0ZM15.2496 23.2311C4.45603 23.0354 4.45877 6.79945 15.2496 6.60514C26.0418 6.80083 26.0404 23.0368 15.2496 23.2311Z" fill="#F9F5EB"/>
<path d="M15.2498 6.60513C4.45755 6.79944 4.45618 23.0354 15.2498 23.2311C26.0406 23.0368 26.0433 6.80083 15.2498 6.60513ZM15.2498 22.8897C4.9018 22.7037 4.90043 7.13532 15.2498 6.94656C25.5977 7.13254 25.5991 22.7009 15.2498 22.8897Z" fill="#FFD369"/>
<path d="M15.1935 8.76891C15.1483 8.76891 15.103 8.77168 15.0578 8.77307V20.9507C15.103 20.9507 15.1483 20.9549 15.1949 20.9549C15.2415 20.9549 15.2868 20.9521 15.332 20.9507V8.77168C15.2868 8.77168 15.2415 8.76752 15.1949 8.76752L15.1935 8.76891Z" fill="#FFD369"/>
<path d="M17.1131 9.08674C17.0898 9.07841 17.0679 9.07147 17.0446 9.06314V20.6579C17.0679 20.6509 17.0898 20.6426 17.1131 20.6343C17.1365 20.6259 17.1584 20.619 17.1817 20.6107V9.10894C17.1584 9.10061 17.1365 9.09367 17.1131 9.08535V9.08674Z" fill="#FFD369"/>
<path d="M12.8626 9.2422V20.4788C12.9531 20.5177 13.045 20.5538 13.1368 20.5871C13.2273 20.6204 13.3192 20.6523 13.4111 20.6801V9.03818C13.3192 9.06732 13.2273 9.09786 13.1368 9.13117C13.045 9.16587 12.9531 9.20195 12.8626 9.23943V9.2422Z" fill="#FFD369"/>
<path d="M16.0162 8.82721V20.8952C16.0615 20.8883 16.1081 20.8827 16.1533 20.8758C16.2 20.8688 16.2452 20.8591 16.2905 20.8508V8.87162C16.2452 8.8633 16.2 8.85497 16.1533 8.84664C16.1081 8.8397 16.0615 8.83276 16.0162 8.82721Z" fill="#FFD369"/>
<path d="M14.0281 8.8841V20.8383C14.0966 20.8522 14.1652 20.8647 14.2337 20.8758C14.3023 20.8869 14.3709 20.8952 14.4394 20.9049V8.81747C14.3709 8.8258 14.3023 8.83552 14.2337 8.84662C14.1652 8.85772 14.0966 8.87022 14.0281 8.8841Z" fill="#FFD369"/>
<path d="M15.2498 6.94656C4.90043 7.13393 4.90181 22.7037 15.2498 22.8897C25.5991 22.7023 25.5977 7.13255 15.2498 6.94656ZM17.1817 20.6121C17.1584 20.6204 17.1364 20.6273 17.1131 20.6357C17.0898 20.644 17.0679 20.6509 17.0446 20.6593C16.7991 20.7398 16.5482 20.8036 16.2905 20.8508C16.2452 20.8591 16.2 20.8675 16.1533 20.8758C16.1081 20.8827 16.0615 20.8897 16.0162 20.8952C15.7914 20.9257 15.5624 20.9452 15.3307 20.9493C15.2854 20.9493 15.2402 20.9535 15.1935 20.9535C15.1469 20.9535 15.1017 20.9507 15.0564 20.9493C14.848 20.9452 14.6424 20.9299 14.4394 20.9035C14.3709 20.8952 14.3023 20.8855 14.2338 20.8744C14.1652 20.8633 14.0966 20.8508 14.0281 20.8369C13.8183 20.7953 13.6126 20.7439 13.4111 20.6801C13.3192 20.6509 13.2273 20.6204 13.1368 20.5871C13.045 20.5524 12.9531 20.5163 12.8626 20.4788C10.6962 19.5573 9.17426 17.3879 9.17426 14.8605C9.17426 12.3331 10.6962 10.1638 12.8626 9.24219C12.9531 9.20333 13.045 9.16724 13.1368 9.13393C13.2273 9.10062 13.3192 9.0687 13.4111 9.04094C13.6126 8.97849 13.8183 8.92575 14.0281 8.88411C14.0966 8.87023 14.1652 8.85774 14.2338 8.84663C14.3023 8.83553 14.3709 8.8272 14.4394 8.81749C14.6424 8.7925 14.848 8.77585 15.0564 8.77169C15.1017 8.77169 15.1469 8.76752 15.1922 8.76752C15.2374 8.76752 15.2827 8.7703 15.3293 8.77169C15.561 8.77724 15.79 8.79528 16.0149 8.82581C16.0601 8.83275 16.1067 8.83831 16.152 8.84525C16.1986 8.85218 16.2438 8.8619 16.2891 8.87023C16.5469 8.91881 16.7978 8.98265 17.0432 9.06176C17.0665 9.0687 17.0885 9.07703 17.1118 9.08536C17.1351 9.09368 17.157 9.10062 17.1803 9.10895C19.5277 9.94032 21.2115 12.1999 21.2115 14.8591C21.2115 17.5184 19.5277 19.7779 17.1803 20.6093L17.1817 20.6121Z" fill="#D95D39"/>
</g>
<defs>
<clipPath id="clip0_542_1877">
<rect width="31" height="32" fill="white"/>
</clipPath>
</defs>
</svg>
