<svg width="22" height="23" viewBox="0 0 22 23" fill="none" xmlns="http://www.w3.org/2000/svg">
<path d="M12.4667 0.490667C12.0435 0.17217 11.5289 0 11 0C10.4711 0 9.95646 0.17217 9.53333 0.490667L0.977778 6.93067C0.674187 7.15919 0.427779 7.45551 0.258067 7.79617C0.0883547 8.13683 0 8.51247 0 8.89333V20.5467C0 21.1973 0.257539 21.8213 0.715961 22.2814C1.17438 22.7415 1.79614 23 2.44444 23H7.21111C7.56768 23 7.90964 22.8578 8.16178 22.6048C8.41391 22.3517 8.55556 22.0085 8.55556 21.6507V15.64C8.55556 14.9893 8.81309 14.3653 9.27152 13.9052C9.72994 13.4451 10.3517 13.1867 11 13.1867C11.6483 13.1867 12.2701 13.4451 12.7285 13.9052C13.1869 14.3653 13.4444 14.9893 13.4444 15.64V21.6507C13.4444 22.0085 13.5861 22.3517 13.8382 22.6048C14.0904 22.8578 14.4323 23 14.7889 23H19.5556C20.2039 23 20.8256 22.7415 21.284 22.2814C21.7425 21.8213 22 21.1973 22 20.5467V8.89333C22 8.51247 21.9116 8.13683 21.7419 7.79617C21.5722 7.45551 21.3258 7.15919 21.0222 6.93067L12.4667 0.490667Z" fill="#F9F5EB"/>
</svg>
