<svg width="16" height="14" viewBox="0 0 16 14" fill="none" xmlns="http://www.w3.org/2000/svg">
<path d="M14.7042 6.89579L15.8125 8.01204L10.6429 13.2291L7.89583 10.4583L9.00417 9.34204L10.6429 10.9887L14.7042 6.89579ZM5.91667 10.4583L8.29167 12.8333H0.375V11.25C0.375 9.50038 3.20917 8.08329 6.70833 8.08329L8.20458 8.17038L5.91667 10.4583ZM6.70833 0.166626C7.54819 0.166626 8.35364 0.500256 8.9475 1.09412C9.54137 1.68799 9.875 2.49344 9.875 3.33329C9.875 4.17314 9.54137 4.9786 8.9475 5.57246C8.35364 6.16633 7.54819 6.49996 6.70833 6.49996C5.86848 6.49996 5.06303 6.16633 4.46916 5.57246C3.8753 4.9786 3.54167 4.17314 3.54167 3.33329C3.54167 2.49344 3.8753 1.68799 4.46916 1.09412C5.06303 0.500256 5.86848 0.166626 6.70833 0.166626Z" fill="#F9F5EB"/>
</svg>
