<svg width="18" height="11" viewBox="0 0 18 11" fill="none" xmlns="http://www.w3.org/2000/svg">
<path d="M14.087 9.42857V11H4.69565V9.42857C4.69565 9.42857 4.69565 6.28571 9.3913 6.28571C14.087 6.28571 14.087 9.42857 14.087 9.42857ZM11.7391 2.35714C11.7391 1.89094 11.6014 1.43522 11.3435 1.04759C11.0855 0.659955 10.7188 0.357834 10.2898 0.179428C9.86077 0.00102133 9.3887 -0.045658 8.93327 0.0452929C8.47783 0.136244 8.05949 0.36074 7.73114 0.690392C7.40279 1.02004 7.17918 1.44005 7.08859 1.89729C6.998 2.35453 7.04449 2.82847 7.2222 3.25918C7.3999 3.68989 7.70082 4.05803 8.08692 4.31704C8.47302 4.57604 8.92695 4.71429 9.3913 4.71429C10.014 4.71429 10.6112 4.46595 11.0515 4.0239C11.4918 3.58185 11.7391 2.9823 11.7391 2.35714ZM14.2435 6.33286C14.6713 6.7291 15.0162 7.20692 15.258 7.73843C15.4999 8.26995 15.6339 8.84451 15.6522 9.42857V11H18V9.42857C18 9.42857 18 6.71786 14.2435 6.33286ZM13.3043 8.9661e-07C13.0679 0.000142964 12.8329 0.0372542 12.6078 0.110001C13.0657 0.769191 13.3112 1.5535 13.3112 2.35714C13.3112 3.16079 13.0657 3.9451 12.6078 4.60429C12.8329 4.67703 13.0679 4.71414 13.3043 4.71429C13.927 4.71429 14.5242 4.46595 14.9645 4.0239C15.4048 3.58185 15.6522 2.9823 15.6522 2.35714C15.6522 1.73199 15.4048 1.13244 14.9645 0.690392C14.5242 0.248342 13.927 8.9661e-07 13.3043 8.9661e-07ZM4.96174 3.08L5.86957 4.18786L2.15217 7.92L0 5.56286L0.907826 4.65143L2.15217 5.89286L4.96174 3.08Z" fill="#F9F5EB"/>
</svg>
