<svg width="26" height="26" viewBox="0 0 26 26" fill="none" xmlns="http://www.w3.org/2000/svg">
<path fill-rule="evenodd" clip-rule="evenodd" d="M2.88939 11.5634C2.88939 10.4245 3.11373 9.2968 3.5496 8.24459C3.98546 7.19239 4.62432 6.23633 5.4297 5.431C6.23507 4.62568 7.19119 3.98686 8.24347 3.55102C9.29574 3.11519 10.4236 2.89086 11.5625 2.89086C12.7015 2.89086 13.8293 3.11519 14.8816 3.55102C15.9339 3.98686 16.89 4.62568 17.6954 5.431C18.5007 6.23633 19.1396 7.19239 19.5755 8.24459C20.0113 9.2968 20.2357 10.4245 20.2357 11.5634C20.2357 13.8636 19.3219 16.0695 17.6954 17.6959C16.0688 19.3223 13.8628 20.236 11.5625 20.236C9.26227 20.236 7.05623 19.3223 5.4297 17.6959C3.80317 16.0695 2.88939 13.8636 2.88939 11.5634ZM11.5625 7.14278e-08C9.72218 0.00026354 7.90846 0.439726 6.27212 1.28187C4.63578 2.124 3.22407 3.3445 2.15432 4.84191C1.08457 6.33933 0.387674 8.07041 0.121549 9.89131C-0.144577 11.7122 0.0277553 13.5703 0.624223 15.3112C1.22069 17.0521 2.22407 18.6255 3.55096 19.9007C4.87786 21.1759 6.48995 22.1159 8.25326 22.6428C10.0166 23.1697 11.8802 23.2681 13.6892 22.93C15.4982 22.5918 17.2004 21.8268 18.6543 20.6986L23.5503 25.5942C23.8229 25.8575 24.188 26.0032 24.567 25.9999C24.946 25.9967 25.3086 25.8446 25.5766 25.5766C25.8446 25.3086 25.9967 24.9461 25.9999 24.5671C26.0032 24.1881 25.8575 23.823 25.5942 23.5504L20.6982 18.6547C22.0254 16.9454 22.8462 14.8981 23.0674 12.7455C23.2886 10.5929 22.9014 8.42136 21.9496 6.47791C20.9978 4.53447 19.5198 2.89706 17.6836 1.7519C15.8474 0.606732 13.7266 -0.000240405 11.5625 7.14278e-08ZM11.5625 17.3452C13.096 17.3452 14.5667 16.736 15.6511 15.6517C16.7354 14.5675 17.3446 13.0969 17.3446 11.5634C17.3446 10.03 16.7354 8.55944 15.6511 7.47515C14.5667 6.39087 13.096 5.78172 11.5625 5.78172C10.029 5.78172 8.55833 6.39087 7.47397 7.47515C6.38962 8.55944 5.78044 10.03 5.78044 11.5634C5.78044 13.0969 6.38962 14.5675 7.47397 15.6517C8.55833 16.736 10.029 17.3452 11.5625 17.3452Z" fill="#F9F5EB"/>
</svg>
